<?xml version="1.0" encoding="UTF-8" standalone="no"?>
<!DOCTYPE svg PUBLIC "-//W3C//DTD SVG 20010904//EN"
              "http://www.w3.org/TR/2001/REC-SVG-20010904/DTD/svg10.dtd">

<svg xmlns="http://www.w3.org/2000/svg"
     width="0.263889in" height="0.444444in"
     viewBox="0 0 19 32">
  <path id="sigil"
        fill="black" stroke="black" stroke-width="1"
        d="M 10.42,2.17
           C 12.15,3.37 11.09,8.98 11.00,11.00
             11.00,11.00 19.00,12.00 19.00,12.00
             19.00,12.00 19.00,14.00 19.00,14.00
             19.00,14.00 18.00,15.00 18.00,15.00
             18.00,15.00 14.00,14.00 14.00,14.00
             14.00,21.75 15.59,26.67 9.00,32.00
             3.69,25.26 5.00,22.15 5.00,14.00
             5.00,14.00 1.00,15.00 1.00,15.00
             1.00,15.00 0.00,14.00 0.00,14.00
             0.00,14.00 0.00,12.00 0.00,12.00
             0.00,12.00 8.00,11.00 8.00,11.00
             7.95,9.92 6.38,-0.64 10.42,2.17 Z" />
</svg>
