<?xml version="1.0" encoding="UTF-8" standalone="no"?>
<!DOCTYPE svg PUBLIC "-//W3C//DTD SVG 20010904//EN"
              "http://www.w3.org/TR/2001/REC-SVG-20010904/DTD/svg10.dtd">

<svg xmlns="http://www.w3.org/2000/svg"
     width="0.402778in" height="0.402778in"
     viewBox="0 0 29 29">
  <path id="Выделение#3"
        fill="none" stroke="black" stroke-width="1"
        d="M 4.82,18.94
           C 7.29,23.43 14.72,25.09 21.57,21.51
             21.57,21.51 22.00,19.27 22.12,18.96
             17.04,22.81 9.35,23.37 4.62,16.33
             4.15,16.08 4.77,18.15 4.82,18.94 Z
           M 4.38,14.80
           C 8.13,21.22 16.17,23.36 22.21,17.98
             16.35,17.70 11.42,16.06 9.43,12.61
             6.96,12.00 5.61,12.13 4.38,14.80 Z" />
  <path id="Выделение#2"
        fill="none" stroke="black" stroke-width="1"
        d="M 8.17,8.39
           C 8.64,13.49 14.78,17.99 22.49,17.45
             22.49,17.45 23.78,15.57 24.02,15.33
             17.82,16.83 10.55,14.26 9.03,5.91
             8.70,5.50 8.44,7.64 8.17,8.39 Z
           M 9.42,4.42
           C 10.29,11.80 16.80,16.98 24.49,14.47
             22.14,6.46 16.72,3.25 9.42,4.42 Z" />
  <path id="Выделение"
        fill="none" stroke="black" stroke-width="1"
        d="M 11.00,0.36
           C -5.79,5.91 -1.81,26.32 13.00,27.80
             31.90,29.70 34.98,2.10 16.00,0.36
             13.97,-0.01 12.95,0.23 11.00,0.36 Z" />
</svg>
