<?xml version="1.0" encoding="UTF-8" standalone="no"?>
<!DOCTYPE svg PUBLIC "-//W3C//DTD SVG 20010904//EN"
              "http://www.w3.org/TR/2001/REC-SVG-20010904/DTD/svg10.dtd">

<svg xmlns="http://www.w3.org/2000/svg"
     width="0.388889in" height="0.388889in"
     viewBox="0 0 28 28">
  <path id="Выделение#1"
        fill="none" stroke="black" stroke-width="1"
        d="M 9.11,4.84
           C 15.74,2.81 15.65,10.17 16.61,15.22
             17.59,16.21 19.05,17.07 22.91,15.96
             24.70,15.00 24.35,14.26 24.52,12.52
             23.48,10.39 21.52,9.96 21.00,11.00
             20.74,13.26 22.30,12.65 22.00,14.00
             19.65,15.30 18.48,14.61 18.00,14.00
             19.96,3.83 26.54,9.97 25.63,14.89
             24.32,21.93 16.35,17.00 12.26,16.22
             10.84,16.97 6.78,19.39 9.48,22.87
             11.78,24.22 12.35,24.13 14.00,23.00
             14.22,20.61 10.78,23.70 10.96,20.17
             11.74,18.70 12.96,18.13 14.96,18.78
             17.00,21.25 15.95,23.50 14.26,24.52
             11.65,26.30 8.26,24.56 7.13,21.95
             4.88,16.73 13.41,15.57 13.78,11.57
             14.02,8.96 11.83,3.30 7.61,8.04
             6.87,8.83 7.09,9.13 7.22,9.74
             7.22,9.74 7.82,10.28 8.91,9.96
             9.39,8.43 10.52,8.09 12.00,9.00
             9.00,18.09 0.00,8.78 9.11,4.84 Z" />
  <path id="Выделение"
        fill="none" stroke="black" stroke-width="1"
        d="M 21.96,2.57
           C 30.94,9.32 29.76,22.99 20.00,26.99
             8.70,31.63 -3.11,22.08 0.51,10.00
             1.83,5.61 5.15,2.94 9.00,0.85
             13.71,-0.44 17.87,-0.51 21.96,2.57 Z" />
</svg>
