<?xml version="1.0" encoding="UTF-8" standalone="no"?>
<!DOCTYPE svg PUBLIC "-//W3C//DTD SVG 20010904//EN"
              "http://www.w3.org/TR/2001/REC-SVG-20010904/DTD/svg10.dtd">

<svg xmlns="http://www.w3.org/2000/svg"
     width="2.63856in" height="2.63856in"
     viewBox="0 0 190 190">
  <path id="Выделение#1"
        fill="black" stroke="black" stroke-width="1"
        d="M 121.00,5.12
           C 126.34,6.82 128.39,6.92 134.00,9.48
             163.71,23.02 182.78,50.24 188.09,81.96
             188.09,81.96 189.78,87.28 189.78,87.28
             190.18,89.83 190.04,96.12 189.78,99.00
             189.94,102.73 186.83,115.92 185.73,120.00
             176.64,153.94 149.43,180.26 115.01,187.75
             107.54,189.38 110.85,189.99 102.00,190.00
             102.00,190.00 86.00,190.00 86.00,190.00
             80.02,189.91 81.12,189.22 75.96,187.83
             63.48,184.46 62.02,185.09 50.00,178.35
             42.66,174.23 31.77,166.92 26.17,160.83
             16.40,150.21 8.35,135.81 4.21,122.00
             4.21,122.00 2.16,113.04 2.16,113.04
             0.39,106.13 0.01,109.47 0.00,101.00
             0.00,101.00 0.00,90.00 0.00,90.00
             0.02,80.80 6.24,61.32 10.44,53.00
             19.12,35.81 30.69,24.57 47.01,14.89
             51.35,12.32 52.99,10.70 58.00,8.56
             58.00,8.56 85.42,0.68 85.42,0.68
             95.60,-1.77 111.12,1.96 121.00,5.12 Z" />
  <path id="Выделение"
        fill="white" stroke="white" stroke-width="1"
        d="M 32.80,71.00
           C 31.81,66.22 39.27,56.62 42.20,53.01
             55.94,36.11 74.29,26.97 96.00,27.00
             100.30,27.01 104.15,26.33 107.00,30.00
             114.05,28.34 120.87,32.64 127.00,35.76
             145.71,45.27 155.82,57.13 159.74,78.00
             161.21,85.82 161.09,89.17 161.00,97.00
             160.93,102.34 161.22,107.93 155.00,109.00
             154.90,97.75 151.12,82.88 143.51,74.32
             141.76,72.35 136.39,68.78 134.00,67.31
             125.44,62.03 121.94,60.95 112.00,61.00
             98.29,61.07 101.71,66.80 93.00,65.00
             95.55,75.28 103.70,86.75 104.83,101.00
             105.66,111.55 96.77,110.40 90.00,107.00
             92.82,111.28 92.87,111.97 93.00,117.00
             93.00,117.00 100.00,116.00 100.00,116.00
             99.51,122.05 97.95,123.73 92.00,125.00
             91.02,130.68 88.02,129.95 83.00,130.00
             84.51,133.86 85.93,135.98 89.04,138.81
             91.24,140.82 93.29,142.12 96.00,143.32
             115.30,151.91 126.85,136.79 143.00,136.00
             140.08,151.32 122.37,157.08 109.00,159.25
             109.00,159.25 90.00,160.82 90.00,160.82
             86.27,161.08 83.57,160.24 80.00,159.42
             64.20,155.77 46.98,144.45 37.78,131.00
             35.47,127.62 33.66,122.87 32.23,119.00
             29.00,110.27 28.04,103.21 28.00,94.00
             27.96,86.47 24.47,75.87 35.00,75.00
             34.05,73.61 33.17,72.77 32.80,71.00 Z
           M 71.85,83.25
           C 75.92,81.54 75.02,76.40 74.07,73.00
             72.06,65.77 66.74,61.86 59.28,63.60
             50.03,70.59 62.32,87.26 71.85,83.25 Z
           M 133.22,103.94
           C 133.22,103.94 141.00,103.94 141.00,103.94
             140.04,109.02 139.19,110.05 136.00,114.00
             139.15,117.00 139.29,117.76 140.00,122.00
             140.00,122.00 131.00,121.00 131.00,121.00
             129.45,130.27 123.71,131.82 122.00,121.00
             122.00,121.00 113.00,122.00 113.00,122.00
             113.00,122.00 114.92,112.00 114.92,112.00
             114.92,112.00 112.00,103.00 112.00,103.00
             112.00,103.00 122.00,105.00 122.00,105.00
             122.00,105.00 125.00,96.00 125.00,96.00
             125.00,96.00 133.22,103.94 133.22,103.94 Z
           M 92.00,117.00
           C 92.00,117.00 93.00,118.00 93.00,118.00
             93.00,118.00 93.00,117.00 93.00,117.00
             93.00,117.00 92.00,117.00 92.00,117.00 Z
           M 80.00,123.00
           C 80.00,123.00 91.00,124.00 91.00,124.00
             91.00,124.00 92.00,119.00 92.00,119.00
             92.00,119.00 80.00,123.00 80.00,123.00 Z
           M 91.00,124.00
           C 91.00,124.00 92.00,125.00 92.00,125.00
             92.00,125.00 92.00,124.00 92.00,124.00
             92.00,124.00 91.00,124.00 91.00,124.00 Z" />
</svg>
