<?xml version="1.0" encoding="UTF-8" standalone="no"?>
<!DOCTYPE svg PUBLIC "-//W3C//DTD SVG 20010904//EN"
              "http://www.w3.org/TR/2001/REC-SVG-20010904/DTD/svg10.dtd">

<svg xmlns="http://www.w3.org/2000/svg"
     width="0.388889in" height="0.388889in"
     viewBox="0 0 28 28">
  <path id="Выделение#2"
        fill="none" stroke="black" stroke-width="1"
        d="M 20.00,20.00
           C 18.49,19.30 17.44,14.88 15.06,18.06
             14.88,19.25 16.56,22.06 15.00,24.00
             15.00,24.00 13.81,24.06 13.00,24.00
             10.69,22.94 12.81,20.25 13.00,18.00
             10.13,15.50 9.63,18.56 8.00,20.00
             8.94,15.63 11.63,14.38 13.94,12.38
             16.13,14.44 19.23,15.44 20.00,20.00 Z" />
  <path id="Выделение#1"
        fill="none" stroke="black" stroke-width="1"
        d="M 17.00,9.94
           C 15.38,10.38 16.07,11.56 16.00,13.00
             16.00,13.00 20.63,13.63 19.00,10.00
             22.75,10.25 25.00,9.00 25.00,9.00
             25.00,9.00 25.56,10.75 22.06,13.13
             22.06,17.44 21.39,21.07 20.50,22.00
             18.06,25.88 10.88,26.69 7.56,22.06
             5.25,19.56 6.13,16.50 5.94,13.25
             2.50,11.00 3.00,9.00 3.00,9.00
             3.00,9.00 5.75,10.31 9.00,10.00
             5.63,13.44 12.00,13.00 12.00,13.00
             12.00,13.00 12.56,10.56 11.06,9.94
             13.13,7.69 13.59,6.10 14.00,4.63
             14.59,6.92 15.44,8.69 17.00,9.94 Z" />
  <path id="Выделение"
        fill="none" stroke="black" stroke-width="1"
        d="M 21.00,1.74
           C 31.03,8.03 30.33,22.93 19.00,27.26
             8.54,31.26 -1.92,21.73 0.28,11.00
             1.27,6.16 4.83,2.93 9.00,0.74
             12.98,-0.22 17.36,-0.54 21.00,1.74 Z" />
</svg>
