<?xml version="1.0" encoding="UTF-8" standalone="no"?>
<!DOCTYPE svg PUBLIC "-//W3C//DTD SVG 20010904//EN"
              "http://www.w3.org/TR/2001/REC-SVG-20010904/DTD/svg10.dtd">

<svg xmlns="http://www.w3.org/2000/svg"
     width="2.63856in" height="2.63856in"
     viewBox="0 0 190 190">
  <path id="Выделение"
        fill="black" stroke="black" stroke-width="1"
        d="M 78.91,34.40
           C 81.73,33.30 83.02,30.83 86.04,29.14
             89.74,27.06 94.85,26.92 99.00,27.01
             103.02,27.11 109.27,26.83 111.00,31.00
             120.08,28.84 135.99,34.23 141.30,42.02
             147.75,51.47 140.34,62.45 129.00,62.96
             125.19,63.13 121.53,62.78 118.00,61.27
             116.12,60.47 111.88,57.69 110.42,57.57
             107.62,57.34 106.49,60.29 101.00,60.89
             93.00,61.77 88.73,58.84 86.44,59.22
             84.02,59.62 81.73,62.87 79.83,64.47
             75.48,68.15 71.66,70.06 66.00,69.00
             66.00,69.00 63.54,75.17 63.54,75.17
             63.54,75.17 62.53,81.00 62.53,81.00
             62.53,81.00 55.00,95.00 55.00,95.00
             62.68,101.07 62.19,108.49 59.00,117.00
             65.52,120.51 63.53,120.43 67.71,124.69
             72.43,129.51 74.86,125.45 75.00,136.00
             79.19,134.85 89.62,135.67 94.00,136.68
             94.00,136.68 100.00,138.17 100.00,138.17
             105.12,138.92 103.44,135.75 116.00,138.17
             119.27,129.84 127.77,126.27 136.00,125.00
             134.11,117.69 137.01,118.12 138.12,112.00
             138.12,112.00 140.00,95.00 140.00,95.00
             135.31,92.41 134.13,91.29 133.00,86.00
             125.30,89.63 125.62,84.03 121.08,84.46
             119.33,84.63 117.59,86.49 115.54,87.28
             109.81,89.50 105.39,87.56 101.00,84.00
             98.97,88.01 97.35,89.72 93.00,91.00
             95.01,96.51 97.13,100.93 104.00,100.95
             106.90,100.96 112.17,98.64 115.69,101.60
             117.07,102.76 117.63,104.25 117.84,106.00
             118.63,112.85 110.57,116.24 105.00,117.00
             105.00,117.00 104.00,113.93 104.00,113.93
             100.72,118.89 95.01,117.04 91.05,113.93
             85.44,109.37 77.59,98.64 79.31,91.00
             79.31,91.00 84.74,77.45 84.74,77.45
             85.59,76.37 87.85,74.71 89.02,73.89
             95.40,69.39 95.86,71.80 101.42,71.05
             104.60,70.62 107.02,68.71 111.00,68.47
             111.00,68.47 124.00,70.12 124.00,70.12
             124.00,70.12 132.00,70.12 132.00,70.12
             133.82,70.14 135.27,70.31 136.99,71.01
             139.49,72.03 150.34,80.00 151.85,82.18
             153.41,84.43 153.81,86.29 153.93,88.96
             153.93,88.96 155.99,106.00 155.99,106.00
             155.99,106.00 154.05,119.00 154.05,119.00
             153.49,123.48 154.45,126.56 151.77,130.82
             149.80,133.96 147.37,134.63 144.63,138.09
             141.04,142.63 140.92,145.29 135.00,148.78
             129.99,151.73 124.47,151.59 122.17,152.58
             116.93,154.85 116.63,160.69 106.00,160.98
             96.79,161.24 96.33,159.27 93.42,159.22
             90.83,159.17 85.53,162.60 79.00,160.11
             74.24,158.29 71.90,154.01 68.00,152.02
             63.81,149.88 53.84,151.48 52.11,142.96
             52.11,142.96 52.11,138.00 52.11,138.00
             41.68,137.42 31.26,128.89 37.00,118.00
             31.30,113.71 26.45,106.47 27.20,99.00
             27.56,95.32 29.14,92.99 29.46,91.42
             30.03,88.59 28.42,86.86 28.11,83.00
             27.51,75.70 30.58,72.61 37.00,70.00
             33.68,56.35 41.74,47.91 55.00,46.00
             57.10,31.01 72.76,36.80 78.91,34.40 Z
           M 119.98,51.26
           C 125.56,49.99 126.97,40.38 118.04,40.71
             109.68,45.22 115.68,52.23 119.98,51.26 Z
           M 65.00,68.00
           C 65.00,68.00 66.00,69.00 66.00,69.00
             66.00,69.00 66.00,68.00 66.00,68.00
             66.00,68.00 65.00,68.00 65.00,68.00 Z" />
</svg>
