<?xml version="1.0" encoding="UTF-8" standalone="no"?>
<!DOCTYPE svg PUBLIC "-//W3C//DTD SVG 20010904//EN"
              "http://www.w3.org/TR/2001/REC-SVG-20010904/DTD/svg10.dtd">

<svg xmlns="http://www.w3.org/2000/svg"
     width="2.63856in" height="2.63856in"
     viewBox="0 0 190 190">
  <path id="sigil"
        fill="black" stroke="black" stroke-width="1"
        d="M 79.00,37.00
           C 79.00,37.00 97.00,33.38 97.00,33.38
             97.00,33.38 119.00,38.00 119.00,38.00
             119.00,38.00 154.00,35.00 154.00,35.00
             154.00,35.00 152.00,41.00 152.00,41.00
             152.00,41.00 158.00,40.00 158.00,40.00
             157.96,53.35 150.86,88.82 147.65,103.00
             146.72,107.12 144.62,118.66 142.16,121.49
             140.90,122.94 139.66,123.28 138.20,124.00
             138.35,125.64 138.71,126.19 138.20,128.00
             137.43,133.51 126.26,144.99 122.00,148.83
             115.37,154.82 98.32,167.07 89.00,165.76
             84.77,165.17 77.54,159.90 74.04,157.27
             63.12,149.06 53.77,137.69 48.60,125.00
             45.28,116.85 43.26,111.97 48.00,104.00
             41.25,102.84 41.70,101.20 40.73,95.00
             40.73,95.00 39.44,88.00 39.44,88.00
             39.44,88.00 38.83,79.00 38.83,79.00
             38.83,79.00 36.15,58.28 36.15,58.28
             36.15,58.28 36.15,37.00 36.15,37.00
             36.15,37.00 79.00,37.00 79.00,37.00 Z
           M 77.00,60.83
           C 77.00,60.83 60.00,58.00 60.00,58.00
             60.00,79.45 66.42,105.20 78.72,123.00
             81.66,127.24 89.34,138.53 95.00,138.31
             102.14,138.03 109.49,127.39 112.99,122.00
             122.45,107.41 131.84,74.38 132.00,57.00
             114.14,63.86 95.71,62.67 77.00,60.83 Z
           M 94.00,73.00
           C 94.00,73.00 115.00,71.00 115.00,71.00
             115.00,71.00 114.00,75.00 114.00,75.00
             114.00,75.00 121.00,73.00 121.00,73.00
             120.37,86.61 112.77,105.95 104.96,117.00
             102.64,120.28 96.60,128.42 92.00,126.83
             87.78,125.37 82.96,117.90 80.95,114.00
             75.64,103.70 70.53,82.63 70.00,71.00
             70.00,71.00 94.00,73.00 94.00,73.00 Z" />
</svg>
