<?xml version="1.0" encoding="UTF-8" standalone="no"?>
<!DOCTYPE svg PUBLIC "-//W3C//DTD SVG 20010904//EN"
              "http://www.w3.org/TR/2001/REC-SVG-20010904/DTD/svg10.dtd">

<svg xmlns="http://www.w3.org/2000/svg"
     width="17.7778in" height="10in"
     viewBox="0 0 1280 720">
  <path id="sigil"
        fill="none" stroke="black" stroke-width="1"
        d="M 203.63,705.13
           C 203.63,705.13 197.33,705.58 193.94,702.63
             190.55,699.67 189.48,697.91 189.00,694.56
             188.17,688.13 199.38,680.31 199.38,680.31
             199.38,680.31 198.61,684.30 199.61,684.09
             202.48,682.96 202.78,681.87 204.43,677.35
             207.17,678.22 206.91,681.65 206.78,685.35
             207.57,687.26 208.94,682.96 208.94,683.00
             209.72,684.17 211.44,685.28 211.44,689.50
             210.22,694.07 205.58,697.97 202.25,698.38
             201.39,698.48 202.38,693.80 201.61,694.04
             201.30,696.35 200.30,696.39 200.04,699.13
             197.68,699.32 197.59,696.95 197.36,697.39
             197.69,701.69 203.00,703.88 203.63,705.13 Z" />
</svg>
