<?xml version="1.0" encoding="UTF-8" standalone="no"?>
<!DOCTYPE svg PUBLIC "-//W3C//DTD SVG 20010904//EN"
              "http://www.w3.org/TR/2001/REC-SVG-20010904/DTD/svg10.dtd">

<svg xmlns="http://www.w3.org/2000/svg"
     width="2.61078in" height="2.61078in"
     viewBox="0 0 188 188">
  <path id="background"
        fill="black" stroke="black" stroke-width="1"
        d="M 136.49,180.27
           C 136.49,180.27 122.00,185.43 122.00,185.43
             109.09,189.31 95.35,188.02 82.00,188.00
             70.21,187.98 51.44,181.47 42.00,174.45
             38.94,172.17 33.89,166.89 31.00,164.00
             31.00,164.00 15.34,148.00 15.34,148.00
             6.70,137.38 0.02,118.72 0.00,105.00
             0.00,105.00 0.00,83.00 0.00,83.00
             0.01,74.47 0.93,72.01 3.50,64.00
             9.02,46.78 14.65,38.87 27.26,26.26
             39.36,14.16 47.54,8.66 64.00,3.50
             71.39,1.18 75.19,0.01 83.00,0.00
             83.00,0.00 105.00,0.00 105.00,0.00
             113.53,0.01 115.99,0.93 124.00,3.50
             152.99,12.79 176.22,35.69 185.23,65.00
             189.20,77.93 188.02,91.65 188.00,105.00
             187.98,119.40 180.48,138.79 171.52,150.00
             171.52,150.00 154.00,167.96 154.00,167.96
             148.72,173.00 142.72,175.55 138.00,181.00
             137.59,180.73 137.81,180.26 136.49,180.27 Z
           M 66.00,187.00
           C 66.00,187.00 65.00,188.00 65.00,188.00
             65.00,188.00 65.00,187.00 65.00,187.00
             65.00,187.00 66.00,187.00 66.00,187.00 Z" />
  <path id="sigil"
        fill="white" stroke="white" stroke-width="1"
        d="M 102.17,38.00
           C 102.17,38.00 104.00,50.00 104.00,50.00
             104.00,50.00 123.00,36.00 123.00,36.00
             123.00,36.00 124.00,57.00 124.00,57.00
             127.36,51.65 134.45,52.79 140.00,50.90
             145.37,49.07 147.31,46.53 153.00,45.00
             152.96,49.27 153.00,53.31 150.44,56.98
             145.47,64.13 138.00,63.53 133.00,72.00
             133.00,72.00 153.00,72.00 153.00,72.00
             151.40,77.38 143.36,82.68 139.00,87.00
             151.75,87.04 149.34,90.35 159.00,92.15
             162.56,93.03 165.45,92.28 169.00,92.15
             166.32,101.03 156.46,103.79 148.00,102.23
             145.80,101.83 138.27,98.83 138.34,103.15
             138.43,108.99 150.60,113.19 153.00,121.00
             153.00,121.00 146.00,120.30 146.00,120.30
             140.45,119.88 137.92,122.76 140.57,128.00
             143.51,133.80 150.26,136.82 152.00,143.00
             145.64,144.14 138.55,144.93 133.09,140.57
             129.08,137.38 126.51,131.46 121.00,127.70
             113.91,122.86 101.47,121.01 99.79,111.00
             99.44,108.89 99.34,107.13 100.35,105.17
             101.30,103.34 103.51,101.43 105.00,100.00
             97.14,103.58 95.32,104.42 88.00,99.00
             89.62,101.11 92.57,104.04 93.57,106.09
             99.02,117.30 82.77,121.53 76.04,125.99
             71.34,129.10 69.49,133.88 64.00,136.35
             57.12,139.45 50.84,135.65 46.00,148.00
             40.93,146.22 41.83,142.61 42.98,138.00
             44.52,131.80 55.07,123.93 60.00,119.00
             60.00,119.00 39.00,121.00 39.00,121.00
             39.96,115.21 44.13,113.17 47.96,109.00
             49.28,107.57 51.53,105.42 50.80,103.24
             49.40,99.01 41.88,101.76 39.00,102.33
             31.18,103.90 21.42,100.69 20.00,92.00
             20.00,92.00 30.00,93.31 30.00,93.31
             30.00,93.31 41.00,86.60 41.00,86.60
             41.00,86.60 53.00,86.00 53.00,86.00
             48.18,80.61 41.10,76.16 39.00,69.00
             39.00,69.00 57.00,71.00 57.00,71.00
             53.43,64.14 48.71,64.87 43.12,60.64
             37.84,56.64 36.04,49.23 37.00,43.00
             43.61,44.81 43.72,47.47 49.01,49.24
             56.17,51.63 58.49,47.53 70.00,58.00
             70.00,58.00 69.00,38.00 69.00,38.00
             75.08,39.78 79.02,45.23 84.00,49.00
             86.40,32.01 92.00,36.78 92.00,19.00
             102.25,21.57 101.30,29.41 102.17,38.00 Z
           M 75.00,71.00
           C 75.32,80.18 78.61,79.79 86.00,83.00
             85.22,75.69 82.56,71.88 75.00,71.00 Z
           M 116.91,77.73
           C 118.39,76.01 119.25,72.66 116.91,71.66
             111.26,69.54 107.74,78.13 107.00,82.00
             110.42,81.47 114.96,80.72 116.91,77.73 Z
           M 87.00,98.00
           C 87.00,98.00 88.00,99.00 88.00,99.00
             88.00,99.00 88.00,98.00 88.00,98.00
             88.00,98.00 87.00,98.00 87.00,98.00 Z
           M 106.00,98.00
           C 106.00,98.00 107.00,99.00 107.00,99.00
             107.00,99.00 107.00,98.00 107.00,98.00
             107.00,98.00 106.00,98.00 106.00,98.00 Z
           M 105.00,99.00
           C 105.00,99.00 106.00,100.00 106.00,100.00
             106.00,100.00 106.00,99.00 106.00,99.00
             106.00,99.00 105.00,99.00 105.00,99.00 Z
           M 74.30,134.00
           C 76.87,128.98 91.17,117.28 97.00,117.40
             103.15,117.52 116.03,127.81 118.86,133.00
             120.70,136.37 121.17,142.12 121.37,145.98
             121.47,147.96 121.27,151.22 118.26,149.83
             116.68,149.10 114.11,145.45 112.82,144.00
             112.82,144.00 103.75,135.00 103.75,135.00
             104.00,138.30 104.26,146.22 103.75,149.00
             101.05,158.07 97.23,154.85 98.00,168.00
             91.22,166.54 87.77,160.85 88.41,154.00
             88.72,150.71 90.70,147.26 90.61,144.00
             90.53,141.42 89.01,138.39 88.00,136.00
             78.07,143.13 80.21,147.56 72.00,150.00
             72.00,144.74 71.82,138.82 74.30,134.00 Z" />
</svg>
