<?xml version="1.0" encoding="UTF-8" standalone="no"?>
<!DOCTYPE svg PUBLIC "-//W3C//DTD SVG 20010904//EN"
              "http://www.w3.org/TR/2001/REC-SVG-20010904/DTD/svg10.dtd">

<svg xmlns="http://www.w3.org/2000/svg"
     width="2.63856in" height="2.63856in"
     viewBox="0 0 190 190">
  <path id="sigil"
        fill="black" stroke="black" stroke-width="1"
        d="M 115.87,57.00
           C 120.35,51.73 129.84,38.09 135.01,35.39
             137.87,33.90 149.73,30.12 152.40,32.06
             153.96,33.19 153.83,35.32 153.70,37.00
             153.42,40.59 152.97,50.36 151.69,53.00
             150.01,56.45 145.09,60.85 142.32,63.83
             142.32,63.83 123.40,83.92 123.40,83.92
             121.18,86.24 115.22,92.40 114.11,95.00
             112.01,99.93 118.52,105.39 122.00,108.00
             123.48,104.99 125.77,100.47 129.04,99.13
             132.83,97.57 138.75,101.96 138.46,106.04
             138.03,112.01 128.92,113.74 131.63,119.01
             132.93,121.55 140.26,128.39 143.04,129.42
             145.95,130.50 151.79,129.71 155.28,134.22
             161.33,142.04 156.60,160.96 139.00,159.96
             133.52,159.64 129.22,156.62 128.23,151.00
             127.70,148.01 128.63,144.46 127.69,142.00
             126.76,139.57 122.99,135.82 121.00,134.08
             112.52,126.63 112.27,139.43 105.83,139.39
             102.05,139.37 97.41,133.82 99.08,130.05
             100.03,127.92 106.73,123.11 109.00,121.00
             109.00,121.00 97.00,111.00 97.00,111.00
             95.00,113.79 88.33,119.83 89.20,122.91
             90.18,126.38 96.87,128.02 95.35,133.04
             94.93,134.44 93.88,135.83 92.85,136.85
             85.42,144.27 81.24,135.20 79.00,129.00
             76.01,131.60 69.65,136.69 67.98,140.09
             65.54,145.07 69.16,155.46 59.00,159.91
             57.25,160.68 55.87,160.85 54.00,160.96
             38.74,161.80 32.01,147.30 39.85,137.13
             44.57,131.00 51.32,132.86 54.99,130.98
             58.40,129.22 64.32,121.28 67.00,118.00
             64.64,116.53 57.13,112.06 56.15,109.79
             54.39,105.71 60.97,99.22 65.00,99.87
             67.98,100.36 72.80,105.80 75.00,108.00
             79.02,102.31 81.63,101.16 83.00,94.00
             75.52,92.79 67.34,82.66 62.42,77.00
             58.16,72.09 44.24,58.81 42.12,54.83
             39.59,50.08 38.05,37.58 38.00,32.00
             42.49,32.00 57.04,32.73 60.49,34.73
             63.97,36.75 70.60,46.18 73.33,49.72
             80.95,59.60 89.38,71.13 98.00,80.00
             99.96,75.86 112.16,61.38 115.87,57.00 Z" />
</svg>
