<?xml version="1.0" encoding="UTF-8" standalone="no"?>
<!DOCTYPE svg PUBLIC "-//W3C//DTD SVG 20010904//EN"
              "http://www.w3.org/TR/2001/REC-SVG-20010904/DTD/svg10.dtd">

<svg xmlns="http://www.w3.org/2000/svg"
     width="0.291667in" height="0.333333in"
     viewBox="0 0 21 24">
  <path id="ball"
        fill="none" stroke="black" stroke-width="1"
        d="M 12.85,11.34
           C 10.10,12.30 5.83,10.19 9.33,6.04
             15.94,4.06 16.56,10.06 12.85,11.34 Z" />
  <path id="gap"
        fill="none" stroke="black" stroke-width="1"
        d="M 6.00,8.47
           C 5.91,5.41 9.50,3.94 11.50,4.00
             13.50,4.00 16.94,5.50 16.94,8.53
             16.97,11.47 13.41,13.00 11.44,12.97
             9.47,13.06 6.03,11.53 6.00,8.47 Z" />
  <path id="base"
        fill="none" stroke="black" stroke-width="1"
        d="M 9.01,20.00
           C 9.01,18.76 8.99,17.92 8.91,16.26
             4.57,14.00 -0.13,3.30 2.91,1.13
             9.91,0.91 16.94,0.97 19.88,1.00
             22.75,4.83 18.88,13.44 13.97,16.03
             13.97,17.06 14.00,19.53 14.00,19.94
             17.03,20.81 17.83,21.72 19.00,23.00
             19.00,23.00 6.17,23.00 3.96,23.00
             4.51,22.01 6.44,20.63 9.01,20.00 Z" />
</svg>
