<?xml version="1.0" encoding="UTF-8" standalone="no"?>
<!DOCTYPE svg PUBLIC "-//W3C//DTD SVG 20010904//EN"
              "http://www.w3.org/TR/2001/REC-SVG-20010904/DTD/svg10.dtd">

<svg xmlns="http://www.w3.org/2000/svg"
     width="2.63856in" height="2.63856in"
     viewBox="0 0 190 190">
  <path id="background"
        fill="black" stroke="black" stroke-width="1"
        d="M 123.00,5.83
           C 128.37,7.65 135.08,9.87 140.00,12.58
             166.71,27.27 183.12,52.26 188.09,81.96
             189.15,88.27 189.98,84.35 190.00,94.00
             190.00,94.00 190.00,101.00 190.00,101.00
             189.93,105.25 187.73,112.50 186.63,117.00
             180.50,141.91 164.67,164.84 142.00,177.47
             142.00,177.47 135.28,180.59 135.28,180.59
             126.85,184.76 112.36,189.98 103.00,190.00
             103.00,190.00 86.00,190.00 86.00,190.00
             79.52,189.90 80.02,188.63 74.00,187.43
             58.54,184.34 47.25,177.91 35.00,168.22
             32.13,165.95 29.73,164.68 27.13,161.95
             27.13,161.95 22.56,156.00 22.56,156.00
             13.82,144.50 10.53,139.73 5.69,126.00
             3.35,119.35 0.01,108.89 0.00,102.00
             0.00,102.00 0.00,92.00 0.00,92.00
             0.04,84.79 0.63,87.31 1.75,81.91
             4.01,70.99 5.43,63.30 10.61,53.00
             19.59,35.15 31.33,24.54 48.00,14.29
             52.06,11.80 54.41,10.09 59.00,8.31
             75.81,1.79 82.59,2.99 89.42,0.68
             98.02,-1.37 114.57,2.97 123.00,5.83 Z" />
  <path id="sigil"
        fill="white" stroke="white" stroke-width="1"
        d="M 105.00,17.00
           C 105.00,17.00 105.00,25.00 105.00,25.00
             106.75,23.15 108.45,20.90 111.08,20.36
             113.74,19.81 117.66,21.32 116.38,24.67
             115.04,28.14 105.55,31.20 102.94,35.32
             101.53,37.56 101.92,40.47 101.98,43.00
             101.98,43.00 103.00,61.00 103.00,61.00
             109.75,55.23 106.41,46.42 108.60,41.19
             110.20,37.39 114.66,37.13 117.57,33.78
             121.00,29.84 119.22,25.89 120.99,23.74
             121.69,22.90 122.81,22.44 123.90,22.54
             127.12,22.83 126.95,26.64 127.00,29.00
             127.04,31.66 127.23,35.57 125.98,37.91
             124.51,40.67 121.47,42.10 120.31,45.04
             119.18,47.88 120.27,54.98 121.00,58.00
             123.61,55.91 128.18,52.98 129.40,49.91
             130.80,46.40 128.54,38.64 135.47,32.57
             139.90,28.69 143.71,31.07 143.71,35.02
             143.71,38.33 141.07,40.75 139.00,43.00
             139.00,43.00 147.91,42.35 147.91,42.35
             147.91,42.35 158.00,46.00 158.00,46.00
             157.89,47.29 157.94,48.63 157.40,49.85
             154.57,56.30 144.86,50.05 140.31,53.02
             137.97,54.55 138.28,57.13 136.57,59.46
             136.57,59.46 121.63,71.44 121.63,71.44
             118.47,72.73 115.15,71.16 112.00,70.89
             109.34,70.67 105.78,71.61 103.00,72.00
             105.63,77.26 108.25,79.02 104.00,84.00
             107.63,84.59 112.54,84.82 115.16,81.69
             116.55,80.02 116.88,77.58 118.70,75.68
             120.30,74.01 129.85,67.82 132.00,67.31
             135.03,66.59 139.02,67.17 141.91,68.25
             143.63,68.90 145.91,70.50 147.75,69.71
             149.97,68.76 151.06,65.11 152.68,63.30
             154.76,60.98 160.85,58.83 163.94,59.41
             167.73,60.11 168.38,63.47 165.77,66.09
             163.14,68.73 160.47,68.90 157.00,69.00
             159.83,72.83 162.50,75.27 167.00,77.11
             169.71,78.22 173.19,78.01 173.46,81.10
             173.74,84.35 170.64,85.62 167.98,85.89
             158.41,86.85 157.38,79.91 152.91,78.79
             151.39,78.17 147.84,78.87 146.00,78.79
             141.45,79.17 135.79,77.53 132.09,79.90
             128.38,82.28 128.21,85.08 122.00,89.00
             133.32,87.55 128.83,90.01 135.09,92.41
             135.09,92.41 142.00,93.80 142.00,93.80
             145.06,94.83 148.81,97.39 152.00,97.68
             157.51,98.19 158.62,93.50 163.09,92.31
             169.37,90.64 178.73,93.68 174.36,98.15
             172.75,99.80 169.14,99.89 167.00,100.56
             163.77,101.57 162.49,102.86 160.00,105.00
             165.03,107.66 168.96,109.25 171.03,115.00
             171.87,117.32 172.54,123.47 168.15,122.26
             165.45,121.51 163.12,116.13 158.00,112.58
             152.92,109.06 150.75,111.76 147.28,110.41
             144.13,109.19 143.21,105.94 137.00,103.00
             136.41,107.93 136.99,117.02 143.06,118.59
             146.36,119.35 149.58,117.34 154.00,118.59
             157.18,119.60 166.01,124.45 164.34,128.70
             163.16,131.73 159.21,130.68 157.00,129.74
             151.51,127.40 149.46,125.10 146.00,132.00
             150.56,133.79 154.04,136.20 155.85,141.00
             156.57,142.91 157.31,146.42 154.68,147.27
             152.60,147.94 143.14,142.52 141.14,141.08
             137.41,138.41 136.91,132.11 135.04,128.00
             132.46,122.33 126.22,117.28 125.43,111.00
             124.89,106.77 128.03,99.63 117.28,97.43
             111.42,96.23 107.88,102.99 104.00,106.00
             107.47,109.19 104.53,112.72 100.98,114.30
             93.40,117.68 80.41,115.97 76.00,124.00
             76.00,124.00 89.00,118.52 89.00,118.52
             94.95,116.58 99.86,116.97 106.00,117.00
             115.26,117.04 125.19,120.78 124.48,132.00
             124.38,133.53 123.84,136.59 123.28,138.00
             120.61,144.77 113.04,149.20 110.48,153.01
             104.22,162.36 120.35,171.16 108.00,174.00
             103.08,168.18 105.59,173.95 93.00,174.00
             93.00,174.00 93.00,169.00 93.00,169.00
             82.11,174.71 84.09,165.75 85.49,159.00
             85.49,159.00 86.59,153.00 86.59,153.00
             89.30,145.87 101.05,139.60 106.00,133.00
             102.28,131.79 96.66,129.61 93.02,131.94
             87.00,135.77 85.78,150.14 73.06,146.69
             67.11,145.07 70.75,140.05 66.49,134.00
             62.90,128.90 45.50,119.07 57.06,112.44
             58.16,111.80 59.77,111.27 61.00,110.93
             63.00,110.37 64.95,110.17 67.00,110.00
             67.00,110.00 67.00,107.21 67.00,107.21
             67.00,107.21 73.96,107.21 73.96,107.21
             76.14,107.10 81.85,104.64 81.38,101.86
             80.85,98.65 75.10,95.56 72.00,89.00
             72.00,89.00 62.61,101.45 62.61,101.45
             62.61,101.45 55.00,105.99 55.00,105.99
             55.00,105.99 41.17,117.10 41.17,117.10
             41.17,117.10 40.00,132.00 40.00,132.00
             35.25,133.40 27.92,140.03 24.89,132.94
             24.35,131.68 24.22,130.34 24.00,129.00
             27.76,127.38 31.27,125.14 32.60,120.99
             33.19,119.13 33.29,116.15 30.85,115.60
             28.11,114.98 28.94,117.90 20.00,118.00
             20.69,106.37 26.32,110.83 32.00,107.98
             34.40,106.77 37.07,103.91 39.00,102.00
             36.92,100.77 34.51,98.97 32.00,99.12
             29.34,99.28 23.74,103.52 19.32,101.40
             13.91,98.81 22.51,92.55 25.00,91.43
             35.75,86.62 41.03,97.54 50.00,96.00
             46.67,85.72 49.86,78.46 41.98,77.24
             35.07,76.17 30.13,83.32 24.42,86.84
             20.47,89.28 17.53,89.25 17.03,83.98
             17.03,83.98 17.03,80.00 17.03,80.00
             22.47,79.11 24.43,77.32 26.00,72.00
             18.27,70.64 21.12,64.19 26.99,64.55
             32.61,64.89 34.70,69.04 40.00,70.75
             42.90,71.30 54.26,71.00 58.00,70.75
             58.00,70.75 57.00,88.00 57.00,88.00
             66.13,83.29 65.28,74.88 66.00,66.00
             54.87,68.16 50.66,58.23 44.00,56.72
             41.08,56.06 38.61,58.07 36.00,59.01
             32.81,60.17 30.31,59.99 27.00,60.00
             28.16,51.78 31.06,53.77 34.41,49.61
             37.56,45.69 34.52,43.12 41.00,42.00
             42.77,47.53 46.89,47.43 52.00,50.00
             50.12,47.50 42.83,35.72 48.32,33.70
             50.60,32.86 53.48,34.52 54.73,36.39
             54.73,36.39 57.81,43.83 57.81,43.83
             59.58,46.66 64.36,50.94 67.00,53.06
             73.47,58.26 76.10,56.78 78.85,59.83
             83.41,64.87 77.31,72.32 78.11,76.96
             78.73,80.52 87.87,85.91 91.00,88.00
             90.85,86.21 90.91,84.83 89.98,83.18
             89.01,81.47 76.76,72.59 87.00,69.00
             85.65,63.45 85.78,62.26 88.00,57.00
             88.00,57.00 73.42,54.10 73.42,54.10
             73.42,54.10 62.00,45.00 62.00,45.00
             62.55,35.79 66.22,37.73 72.00,42.00
             70.27,36.24 68.92,37.42 65.70,33.49
             62.25,29.28 62.21,21.66 69.58,26.37
             71.33,27.48 76.87,31.01 77.83,32.44
             79.53,35.00 78.53,38.21 81.72,41.84
             83.05,43.34 85.37,44.97 86.95,43.05
             88.70,41.36 87.42,37.85 86.95,36.00
             84.02,28.30 80.28,26.08 80.00,18.00
             80.00,18.00 88.00,18.00 88.00,18.00
             88.00,18.00 88.00,23.00 88.00,23.00
             92.65,24.59 92.44,26.63 94.00,31.00
             94.00,31.00 98.00,17.00 98.00,17.00
             98.00,17.00 105.00,17.00 105.00,17.00 Z
           M 52.00,50.00
           C 52.00,50.00 53.00,51.00 53.00,51.00
             53.00,51.00 53.00,50.00 53.00,50.00
             53.00,50.00 52.00,50.00 52.00,50.00 Z
           M 53.00,51.00
           C 53.00,51.00 54.00,52.00 54.00,52.00
             54.00,52.00 54.00,51.00 54.00,51.00
             54.00,51.00 53.00,51.00 53.00,51.00 Z" />
</svg>
